<svg width="24" height="24" viewBox="0 0 24 24" fill="none" xmlns="http://www.w3.org/2000/svg">
<path d="M20 8.511C20.884 8.795 21.5 9.639 21.5 10.608V14.894C21.5 16.03 20.653 16.994 19.52 17.087C19.18 17.114 18.84 17.139 18.5 17.159V20.25L15.5 17.25C14.146 17.25 12.806 17.195 11.48 17.087C11.1913 17.0637 10.9105 16.9813 10.655 16.845M20 8.511C19.8455 8.46127 19.6858 8.42939 19.524 8.416C16.8459 8.19368 14.1541 8.19368 11.476 8.416C10.345 8.51 9.5 9.473 9.5 10.608V14.894C9.5 15.731 9.96 16.474 10.655 16.845M20 8.511V6.637C20 5.016 18.848 3.611 17.24 3.402C15.1708 3.13379 13.0865 2.99951 11 3C8.885 3 6.802 3.137 4.76 3.402C3.152 3.611 2 5.016 2 6.637V12.863C2 14.484 3.152 15.889 4.76 16.098C5.337 16.173 5.917 16.238 6.5 16.292V21L10.655 16.845" stroke="#FF7B00" stroke-width="1.5" stroke-linecap="round" stroke-linejoin="round"/>
</svg>
