<svg width="50" height="40" viewBox="0 0 50 40" fill="none" xmlns="http://www.w3.org/2000/svg">
<path d="M47.2362 11.0991C45.3185 7.97023 42.7953 5.78337 40.0029 4.06755C34.2836 0.568638 27.9249 -0.440625 21.6336 0.164956C17.7982 0.535034 14.0639 1.64526 10.565 3.63022C7.26791 5.51425 4.34079 8.00386 2.22126 11.7719C0.370869 15.0353 -0.402848 18.6352 0.202734 22.6387C0.707385 25.9358 2.12039 28.6609 3.97078 30.9823C6.79683 34.4812 10.2284 36.6344 13.9628 38.1147C14.6356 38.3839 15.3422 38.6194 16.116 38.8885V37.9801C16.116 32.0925 16.116 26.2049 16.116 20.3173C16.116 19.0052 16.4189 17.8614 17.0581 16.8521C20.3888 11.671 27.9584 11.7383 31.8274 15.7418C34.1825 18.1641 34.2499 21.6631 31.9621 24.1863C30.3136 26.0031 28.2951 26.7769 26.1419 27.046C25.1999 27.1806 24.2241 27.1806 23.3494 27.5843C22.1383 28.1563 22.0709 29.502 23.1139 30.4776C26.0072 33.2701 28.9004 36.0625 31.8274 38.8549C32.0293 39.0567 32.3994 39.1913 32.6685 39.0904C34.4852 38.4511 36.3021 37.8792 38.0516 37.0381C41.4496 35.3896 44.4774 33.0009 46.8661 29.4347C50.6342 23.8163 50.7352 16.8521 47.169 11.0654L47.2362 11.0991ZM42.5597 27.6516C40.3056 31.016 37.345 33.0345 34.048 34.4139C33.9134 34.4812 33.7115 34.4812 33.6106 34.3803C32.2985 33.1355 31.02 31.8907 29.7415 30.6459C29.7415 30.6459 29.7417 30.5786 29.7081 30.444C31.5921 29.8384 33.3415 28.9973 34.9228 27.6179C36.1339 26.575 37.1768 25.3302 37.8497 23.6817C39.0945 20.7883 38.7581 17.4913 36.975 14.8671C33.1732 9.2823 26.3773 8.23937 20.9943 9.51782C18.2692 10.157 15.645 11.5028 13.5927 13.8915C12.0451 15.7082 11.1706 17.895 11.2042 20.6874C11.2715 24.119 11.2042 27.517 11.2042 30.9487V31.7897C8.109 29.6702 4.40807 25.0274 4.94636 18.938C5.18187 16.1792 6.22484 13.8578 7.70515 11.8728C9.85833 8.94587 12.5498 7.12915 15.5104 5.8507C21.97 3.0583 29.9099 3.12557 36.1675 6.72541C37.4124 7.43192 38.6235 8.34029 39.7337 9.34959C40.844 10.3589 41.8868 11.57 42.7615 12.9158C45.7221 17.5249 45.6212 23.1771 42.5597 27.7189V27.6516Z" fill="#FF7B00"/>
<path d="M28.6977 20.0153C28.6977 21.6302 27.0156 22.976 24.9297 22.976C22.8438 22.976 21.1616 21.6639 21.1616 20.0153C21.1616 18.3668 22.8438 17.0547 24.9297 17.0547C27.0156 17.0547 28.6977 18.3668 28.6977 20.0153Z" fill="#FF7B00"/>
</svg>
