<svg width="175" height="180" viewBox="0 0 175 180" fill="none" xmlns="http://www.w3.org/2000/svg">
<path d="M18.4668 66.1381L57.3423 83.8088C64.2179 86.9341 64.4522 96.6149 57.7357 100.069C54.7252 101.617 52.8328 104.719 52.8328 108.104V147.445C52.8328 156.939 43.0235 163.262 34.3764 159.34L7.6672 147.228C2.99859 145.111 0 140.458 0 135.332V78.0291C0 68.5294 9.81859 62.2071 18.4668 66.1381Z" fill="white"/>
<path d="M155.206 62.6073L71.9777 107.494C67.7511 109.774 65.1162 114.189 65.1162 118.991V161.682C65.1162 166.844 68.1561 171.522 72.8731 173.618L80.9972 177.229C84.9035 178.965 89.4121 178.68 93.0685 176.466L168.172 130.98C172.08 128.613 174.468 124.377 174.468 119.808V74.1036C174.468 64.2163 163.908 57.9138 155.206 62.6073Z" fill="white"/>
<path d="M150.43 51.2316L92.9419 81.1901C89.3441 83.065 85.0793 83.1616 81.4002 81.4517L24.5605 55.0332C14.6432 50.4238 14.4429 36.3963 24.2245 31.5055L81.7268 2.75437C85.2151 1.01021 89.3003 0.916077 92.8653 2.49771L149.69 27.7089C159.691 32.1458 160.132 46.1755 150.43 51.2316Z" fill="#E75E0E"/>
</svg>
