<svg width="39" height="40" viewBox="0 0 39 40" fill="none" xmlns="http://www.w3.org/2000/svg">
<path d="M4.66623 14.4852L12.9105 18.2326C14.3687 18.8954 14.4183 20.9484 12.994 21.6809C12.3555 22.0092 11.9542 22.6669 11.9542 23.3848V31.7278C11.9542 33.7413 9.87397 35.0821 8.04018 34.2505L2.37598 31.6818C1.38591 31.2329 0.75 30.2462 0.75 29.1591V17.0069C0.75 14.9923 2.83222 13.6515 4.66623 14.4852Z" fill="white" stroke="#252525" stroke-width="1.5"/>
<path d="M33.6648 13.7363L16.0147 23.2554C15.1184 23.7389 14.5596 24.6751 14.5596 25.6935V34.7471C14.5596 35.8418 15.2042 36.8338 16.2046 37.2784L17.9274 38.0441C18.7558 38.4123 19.712 38.3518 20.4874 37.8822L36.4146 28.2361C37.2434 27.7342 37.7497 26.8357 37.7497 25.8667V16.1743C37.7497 14.0775 35.5103 12.741 33.6648 13.7363Z" fill="white" stroke="#252525" stroke-width="1.5"/>
<path d="M32.6515 11.3236L20.4601 17.6769C19.6971 18.0745 18.7927 18.095 18.0125 17.7324L5.95853 12.1298C3.85538 11.1523 3.81289 8.17752 5.88726 7.14034L18.0817 1.0431C18.8215 0.673218 19.6878 0.653256 20.4439 0.988672L32.4947 6.33519C34.6156 7.27612 34.7091 10.2514 32.6515 11.3236Z" fill="#E75E0E" stroke="#252525" stroke-width="1.5"/>
</svg>
