<svg width="24" height="24" viewBox="0 0 24 24" fill="none" xmlns="http://www.w3.org/2000/svg">
<path d="M2 6.5C2 14.784 8.716 21.5 17 21.5H19.25C19.8467 21.5 20.419 21.2629 20.841 20.841C21.2629 20.419 21.5 19.8467 21.5 19.25V17.878C21.5 17.362 21.149 16.912 20.648 16.787L16.225 15.681C15.785 15.571 15.323 15.736 15.052 16.098L14.082 17.391C13.8 17.767 13.313 17.933 12.872 17.771C11.2349 17.1691 9.74815 16.2186 8.51478 14.9852C7.28141 13.7518 6.33087 12.2651 5.729 10.628C5.567 10.187 5.733 9.7 6.109 9.418L7.402 8.448C7.765 8.177 7.929 7.714 7.819 7.275L6.713 2.852C6.65214 2.60869 6.51172 2.3927 6.31405 2.23834C6.11638 2.08397 5.8728 2.00008 5.622 2H4.25C3.65326 2 3.08097 2.23705 2.65901 2.65901C2.23705 3.08097 2 3.65326 2 4.25V6.5Z" stroke="black" stroke-width="1.5" stroke-linecap="round" stroke-linejoin="round"/>
</svg>
