<svg width="44" height="44" viewBox="0 0 44 44" fill="none" xmlns="http://www.w3.org/2000/svg">
<rect width="44" height="44" rx="22" fill="#E75E0E"/>
<path fill-rule="evenodd" clip-rule="evenodd" d="M11.5 14.5C11.5 13.7044 11.8161 12.9413 12.3787 12.3787C12.9413 11.8161 13.7044 11.5 14.5 11.5H15.872C16.732 11.5 17.482 12.086 17.691 12.92L18.796 17.343C18.8855 17.701 18.8675 18.0775 18.744 18.4252C18.6206 18.773 18.3972 19.0766 18.102 19.298L16.809 20.268C16.674 20.369 16.645 20.517 16.683 20.62C17.2474 22.1549 18.1386 23.5487 19.2949 24.7051C20.4513 25.8614 21.8451 26.7526 23.38 27.317C23.483 27.355 23.63 27.326 23.732 27.191L24.702 25.898C24.9234 25.6028 25.227 25.3794 25.5748 25.256C25.9225 25.1325 26.299 25.1145 26.657 25.204L31.08 26.309C31.914 26.518 32.5 27.268 32.5 28.129V29.5C32.5 30.2956 32.1839 31.0587 31.6213 31.6213C31.0587 32.1839 30.2956 32.5 29.5 32.5H27.25C18.552 32.5 11.5 25.448 11.5 16.75V14.5Z" fill="white"/>
</svg>
