<svg width="84" height="32" viewBox="0 0 84 32" fill="none" xmlns="http://www.w3.org/2000/svg">
<path d="M34.5251 15.1729L42.0866 8.00914H39.4004C38.4551 8.00914 37.5844 8.38226 36.8134 9.10361L32.56 13.1332C32.0128 12.586 31.341 11.8895 30.5451 11.0438C29.7242 10.1981 28.7044 9.15334 27.4856 7.88477H26.6898H0V10.5214H23.9039C24.078 10.6955 24.252 10.8945 24.4012 11.0438C24.849 11.4915 25.222 11.8895 25.5952 12.2626H0V14.8993H28.1572C28.1572 14.8993 28.3811 15.1231 28.4557 15.1977C28.6547 15.3967 28.8041 15.5708 28.9534 15.6952C29.0778 15.8196 29.2268 15.9688 29.4009 16.143L28.7791 16.715C28.7791 16.715 28.7791 16.6653 28.7791 16.6404H6.2185V19.2771H26.0679L24.2273 21.0182H6.2185V23.6549H23.8541H24.1775C25.1227 23.6549 25.9934 23.2569 26.7645 22.5356L31.3412 18.1826C31.8635 18.7298 32.5599 19.4512 33.4056 20.3218C34.2513 21.1924 35.321 22.2868 36.6145 23.63H42.7334C41.3653 22.2371 39.9972 20.8193 38.6042 19.4014C37.2113 17.9836 35.8683 16.5658 34.5251 15.1729Z" fill="#FF7B00"/>
<path d="M63.4037 8.00781C62.8316 8.00781 62.2843 8.18192 61.7868 8.50529C61.2894 8.82865 60.8914 9.30126 60.568 9.94798L60.0458 10.9927L55.0461 20.9423L48.3548 8.03267H43.0815L51.1158 23.7033H57.0358L65.2444 8.03267H63.3788L63.4037 8.00781Z" fill="#FF7B00"/>
<path d="M82.7811 15.8207C82.4578 15.4227 82.1097 15.0994 81.6868 14.8755C81.2888 14.6516 80.841 14.5273 80.3435 14.5273H71.3142C71.1152 14.5273 70.9163 14.4775 70.7422 14.378C70.5681 14.2785 70.3941 14.1293 70.2697 13.9552C70.1205 13.7811 70.021 13.5572 69.9463 13.3333C69.8717 13.0846 69.8219 12.8358 69.8219 12.5871C69.8219 12.0648 69.9712 11.5922 70.2697 11.2439C70.5682 10.8708 70.9163 10.6967 71.3391 10.6967H80.5922C81.0648 10.6967 81.4877 10.5723 81.8857 10.3485C82.2837 10.1246 82.6321 9.80121 82.9803 9.35348L83.9999 8.03516H68.8766C68.404 8.03516 67.9562 8.15952 67.5333 8.38339C67.1105 8.63213 66.7375 8.95552 66.4141 9.37837C66.0908 9.80123 65.8419 10.2738 65.6678 10.8459C65.4937 11.3932 65.3942 11.9901 65.3942 12.612C65.3942 13.3084 65.5186 13.9552 65.7425 14.577C65.9166 15.0745 66.1405 15.5222 66.439 15.8954C66.7624 16.2933 67.1105 16.6167 67.5333 16.8406C67.9313 17.0644 68.3791 17.1888 68.8766 17.1888H77.9059C78.1049 17.1888 78.3038 17.2386 78.478 17.3381C78.6521 17.4375 78.8264 17.5868 78.9507 17.7609C79.0751 17.935 79.1995 18.1589 79.2741 18.3828C79.3487 18.6315 79.3983 18.8802 79.3983 19.1538C79.3983 19.7011 79.2492 20.1488 78.9507 20.5219C78.6522 20.895 78.3039 21.0692 77.881 21.0692H68.628C67.7076 21.0692 66.9366 21.5169 66.265 22.3875L65.27 23.7058H80.3933C80.8659 23.7058 81.3137 23.5814 81.7366 23.3576C82.1595 23.1088 82.5324 22.7855 82.8558 22.3626C83.1792 21.9398 83.428 21.4671 83.6022 20.895C83.7763 20.3478 83.8757 19.7508 83.8757 19.129C83.8757 18.4325 83.7513 17.7858 83.5275 17.1639C83.3533 16.6664 83.1294 16.2187 82.8309 15.8456L82.7811 15.8207Z" fill="#FF7B00"/>
<path d="M11.8652 28.0331H22.9593C23.9045 27.262 24.7751 26.3666 25.5213 25.3965H11.8652V28.0331Z" fill="#FF7B00"/>
<path d="M13.0592 0C10.4723 0 8.00974 0.646717 5.8457 1.74117H20.2479C18.0838 0.621843 15.6461 0 13.0343 0H13.0592Z" fill="#FF7B00"/>
<path d="M22.9594 3.50781H3.15945C2.21424 4.27891 1.34388 5.17437 0.597656 6.14445H25.5215C24.7752 5.17437 23.9046 4.27891 22.9594 3.50781Z" fill="#FF7B00"/>
<path d="M11.8652 31.4673C12.2632 31.4922 12.6615 31.542 13.0594 31.542C15.6463 31.542 18.1086 30.8952 20.2727 29.8008H11.8652V31.4673Z" fill="#FF7B00"/>
</svg>
