<svg width="44" height="34" viewBox="0 0 44 34" fill="none" xmlns="http://www.w3.org/2000/svg">
<path d="M28.5418 25.3716C26.1592 25.3716 23.7552 25.3716 21.3726 25.3716C21.0506 25.3716 20.9862 25.2857 21.0076 24.9852C21.0076 22.8602 21.0076 20.7137 21.0076 18.5886C21.0076 18.2881 21.0936 18.2237 21.3726 18.2237C25.7515 18.2237 30.1303 18.2237 34.5092 18.2237C34.595 18.2237 34.6809 18.2237 34.7667 18.2237C35.3463 18.2237 35.7326 17.9232 35.7755 17.4295C35.8185 16.9788 35.475 16.5495 34.9384 16.4421C34.7666 16.3992 34.5735 16.3992 34.4017 16.3992C31.9333 16.3992 29.4649 16.3992 27.0179 16.3992C26.4598 16.3992 25.9662 16.2919 25.4725 16.0558C22.124 14.4888 20.235 11.0974 20.5999 7.57713C21.0077 3.52025 24.1416 0.665408 27.5545 0.128784C28.0482 0.0429247 28.5203 0 29.014 0C30.9244 0 32.8349 0 34.7667 0C35.0243 0 35.0888 0.0643818 35.0888 0.321961C35.0888 2.51139 35.0888 4.72229 35.0888 6.91172C35.0888 7.1693 35.0243 7.23368 34.7667 7.23368C32.8778 7.23368 31.0104 7.23368 29.1214 7.23368C28.3702 7.23368 27.9408 7.55565 27.9408 8.1352C27.9408 8.71476 28.3701 9.03673 29.1 9.03673C31.2035 9.03673 33.3287 8.99381 35.4323 9.07967C38.0939 9.18699 40.1973 10.4105 41.6999 12.5999C45.1343 17.6013 42.0648 24.4915 36.0546 25.3286C35.1745 25.4574 34.2945 25.3716 33.4144 25.3716C31.8046 25.3716 30.1947 25.3716 28.5848 25.3716V25.4145L28.5418 25.3716Z" fill="#FF7B00"/>
<path d="M20.3425 25.9303C20.3425 28.3773 20.3425 30.8243 20.3425 33.2928C20.3425 33.6147 20.2566 33.6577 19.9561 33.6577C17.3373 33.6577 14.74 33.6577 12.1213 33.6577C8.60105 33.6147 5.59616 32.3054 3.21355 29.7081C-2.56052 23.3974 -0.242401 13.3733 7.67817 10.175C9.11632 9.59544 10.5973 9.31641 12.1428 9.31641C14.6113 9.31641 17.0799 9.31641 19.5269 9.31641C19.7844 9.31641 19.8702 9.35932 19.9131 9.63837C20.0848 10.9048 20.5356 12.0639 21.2654 13.1157C21.3727 13.2874 21.4373 13.4377 21.4373 13.6523C21.4373 14.4895 21.4373 15.3051 21.4373 16.1422C21.4373 16.4428 21.3299 16.4857 21.0723 16.4857C18.2604 16.4857 15.4271 16.4857 12.6152 16.4857C10.1682 16.4857 8.17198 17.9453 7.52803 20.1777C6.51918 23.655 9.2237 27.0465 12.8298 26.8318C13.0015 26.8318 13.0659 26.7674 13.0444 26.5957C13.0444 26.2523 13.1517 25.823 13.0014 25.5439C12.8297 25.2219 12.3791 25.4151 12.0356 25.3507C10.5116 25.0717 9.35255 23.8053 9.1379 22.1739C8.96618 20.7787 9.88917 19.2547 11.2844 18.6107C11.8425 18.3532 12.4219 18.2673 13.0229 18.2673C15.3626 18.2673 17.6808 18.2673 20.0205 18.2673C20.2781 18.2673 20.3425 18.3317 20.3425 18.5893C20.3425 21.0577 20.3425 23.5047 20.3425 25.9732V25.9303Z" fill="#FF7B00"/>
<path d="M22.081 32.1771C21.5229 32.1771 21.201 31.9839 21.1152 31.5761C21.1152 31.4902 20.9864 31.3399 21.1582 31.3185C21.2869 31.3185 21.5015 31.1897 21.5874 31.4258C21.7161 31.8122 22.0166 31.7693 22.3171 31.7263C22.4459 31.7263 22.5532 31.5975 22.5747 31.4473C22.5961 31.2755 22.4888 31.2112 22.3601 31.1468C22.1883 31.0824 21.9951 31.0394 21.8019 30.9536C21.5444 30.8463 21.3513 30.6745 21.3513 30.3526C21.3513 30.0306 21.5014 29.8374 21.7805 29.6872C22.2742 29.451 22.9611 29.6013 23.1543 29.9877C23.1972 30.095 23.326 30.2882 23.1972 30.3311C23.0684 30.3955 22.8109 30.4813 22.7251 30.2023C22.6821 30.052 22.5533 30.0091 22.403 29.9877C22.1884 29.9877 21.9523 29.9447 21.8879 30.2238C21.8235 30.4814 22.0812 30.5243 22.2529 30.5887C22.3388 30.6101 22.4246 30.6316 22.489 30.6531C22.8324 30.7389 23.0901 30.9107 23.0901 31.3185C23.0901 31.6834 22.8754 31.9409 22.5105 32.0697C22.3602 32.1127 22.2313 32.1342 22.081 32.1342V32.1771Z" fill="#FF7B00"/>
<path d="M23.1111 26.832C22.9608 27.5404 22.8536 28.1199 22.7033 28.6995C22.5531 29.3005 21.8232 29.5795 21.2651 29.2576C21.1363 29.1717 21.0505 29.0644 21.0075 28.9141C20.9861 28.8283 21.0291 28.7853 21.0935 28.8068C21.2437 28.8068 21.3724 28.7424 21.5227 28.9141C21.8017 29.2146 22.1024 29.0644 22.2312 28.5492C22.0809 28.5921 21.952 28.6995 21.8017 28.678C21.6085 28.678 21.4369 28.6136 21.3081 28.4634C21.029 28.1628 21.072 27.5618 21.394 27.1754C21.6945 26.832 22.0809 26.7891 22.4673 27.0252C22.5102 27.0467 22.553 27.154 22.5959 27.0681C22.7032 26.7462 22.9394 27.0252 23.1325 26.8105L23.1111 26.832ZM22.1237 27.2398C21.8662 27.2398 21.6301 27.4974 21.6301 27.8409C21.6301 28.0555 21.6731 28.2702 21.9306 28.2916C22.2097 28.3131 22.4458 28.0126 22.4458 27.6692C22.4458 27.4331 22.3813 27.2613 22.1237 27.2398Z" fill="#FF7B00"/>
<path d="M25.6228 28.5274C25.3867 28.7635 25.7088 29.4718 24.936 29.2787C25.0863 28.5488 25.2579 27.7976 25.4082 27.0678C25.4511 26.8102 25.6873 26.8746 25.7732 26.9175C25.9449 27.0034 26.0307 26.939 26.1809 26.9175C26.6746 26.7672 27.061 27.0463 27.061 27.5615C27.061 27.819 27.0179 28.0766 26.8892 28.2913C26.6101 28.7635 26.095 28.8493 25.6228 28.5274ZM25.7302 27.9264C25.7302 28.2054 25.8161 28.3557 26.0308 28.3771C26.3313 28.3986 26.5889 28.0981 26.5889 27.6902C26.5889 27.4756 26.5244 27.2609 26.2669 27.2609C25.9878 27.2609 25.7517 27.54 25.7302 27.9264Z" fill="#FF7B00"/>
<path d="M27.0391 29.73C26.9962 29.9661 26.9531 30.2237 26.9102 30.4813C27.0605 30.4169 27.1894 30.374 27.3182 30.3525C27.7904 30.2452 28.0478 30.4813 27.962 30.975C27.919 31.2325 27.8333 31.4901 27.8118 31.7692C27.7904 32.1341 27.6186 32.2199 27.2537 32.1126C27.3181 31.8121 27.3824 31.4901 27.4468 31.1681C27.4683 31.0179 27.5758 30.8032 27.3397 30.7389C27.1036 30.6745 26.9319 30.7818 26.846 30.9964C26.7172 31.2969 26.6955 31.6189 26.6097 31.9194C26.5882 32.0053 26.6098 32.1555 26.438 32.1555C26.2234 32.1555 26.0302 32.177 26.1375 31.8336C26.2878 31.254 26.4166 30.6745 26.5025 30.0949C26.5669 29.73 26.7172 29.6227 27.0606 29.7515L27.0391 29.73Z" fill="#FF7B00"/>
<path d="M32.4485 29.6855C32.427 29.8358 32.4055 29.9646 32.384 30.0719C32.3626 30.1792 32.3196 30.2866 32.2981 30.4153C32.4698 30.4797 32.5988 30.3509 32.749 30.3295C33.1998 30.2651 33.4357 30.4797 33.3713 30.9305C33.3284 31.2095 33.2427 31.4671 33.2212 31.7462C33.1783 32.1111 33.0065 32.2184 32.6631 32.0896C32.7275 31.7676 32.7918 31.4242 32.8562 31.1022C32.8777 30.9734 32.9422 30.8017 32.749 30.7373C32.5773 30.6729 32.4054 30.7373 32.2981 30.909C32.1264 31.1666 32.1049 31.4671 32.062 31.7462C32.0191 32.0896 31.8688 32.2399 31.4824 32.1111C31.6327 31.3813 31.7831 30.63 31.9549 29.9002C32.0192 29.5567 32.2768 29.7928 32.47 29.7285L32.4485 29.6855Z" fill="#FF7B00"/>
<path d="M24.8712 28.1412C24.6566 28.6348 24.1842 28.8495 23.6905 28.6992C23.3042 28.5704 23.111 28.227 23.2184 27.7548C23.3257 27.1752 23.7335 26.8318 24.2486 26.8747C24.7423 26.9176 25.0428 27.2396 24.9999 27.7118C24.9999 27.8621 24.9355 27.9265 24.7853 27.9265C24.4848 27.9265 24.2059 27.9265 23.9054 27.9265C23.8195 27.9265 23.6905 27.8621 23.669 28.0123C23.669 28.1197 23.6692 28.227 23.798 28.2914C23.9482 28.3773 24.1413 28.4202 24.2701 28.2914C24.4418 28.0982 24.6351 28.1411 24.8712 28.1626V28.1412ZM24.163 27.626C24.2703 27.5401 24.5062 27.7333 24.5062 27.4543C24.5062 27.2611 24.3559 27.2181 24.1842 27.2396C23.991 27.2396 23.7765 27.3255 23.7765 27.5187C23.7765 27.7118 24.0127 27.5616 24.1415 27.626H24.163Z" fill="#FF7B00"/>
<path d="M29.9155 31.5746C29.7009 32.0682 29.25 32.2829 28.7563 32.1327C28.3485 32.0039 28.1553 31.6389 28.2627 31.1667C28.37 30.6086 28.7993 30.2437 29.3144 30.3081C29.572 30.3296 29.8082 30.4154 29.9585 30.673C30.2161 31.1238 30.0871 31.3599 29.572 31.3599C29.3788 31.3599 29.1858 31.3599 28.9927 31.3599C28.9068 31.3599 28.7351 31.2955 28.7351 31.4458C28.7351 31.596 28.7994 31.7033 28.9497 31.7677C29.0785 31.8107 29.2286 31.8321 29.3359 31.7248C29.5076 31.5316 29.7009 31.5316 29.9585 31.5531L29.9155 31.5746ZM29.2073 31.0809C29.2716 30.9306 29.5505 31.2097 29.5505 30.9091C29.5505 30.7374 29.4005 30.673 29.2502 30.673C29.057 30.673 28.8423 30.7589 28.8423 30.9521C28.8423 31.1667 29.0785 30.995 29.2073 31.0809Z" fill="#FF7B00"/>
<path d="M35.3252 31.5756C35.1964 32.1766 34.3807 32.3054 33.9943 32.0693C33.608 31.8331 33.5434 31.2107 33.8439 30.7384C34.1444 30.2877 34.7884 30.1803 35.1962 30.5023C35.4324 30.6955 35.4541 30.9531 35.4326 31.2321C35.4326 31.4038 35.325 31.3824 35.1962 31.3824C34.9172 31.3824 34.6384 31.3824 34.3593 31.3824C34.2735 31.3824 34.1232 31.318 34.1018 31.4897C34.1018 31.6185 34.1661 31.7258 34.2734 31.7902C34.4236 31.8546 34.5738 31.8761 34.6811 31.7687C34.8528 31.5541 35.0676 31.5971 35.3037 31.5971L35.3252 31.5756ZM34.1875 31.0604C34.3592 31.0604 34.5094 31.0604 34.6596 31.0604C34.7669 31.0604 34.9602 31.1677 34.9602 30.9531C34.9602 30.7384 34.7886 30.674 34.5954 30.6955C34.4022 30.717 34.2518 30.8029 34.1875 31.0604Z" fill="#FF7B00"/>
<path d="M34.853 28.1423C34.6598 28.6145 34.2305 28.8291 33.7583 28.7004C33.329 28.593 33.1358 28.2496 33.2216 27.7344C33.3075 27.2193 33.7367 26.8329 34.2304 26.8544C34.7456 26.8544 35.0461 27.1978 35.0031 27.6915C35.0031 27.8418 34.9388 27.9062 34.7885 27.9062C34.488 27.9062 34.2089 27.9062 33.9084 27.9062C33.8225 27.9062 33.6938 27.8418 33.6723 27.992C33.6723 28.0993 33.6939 28.2067 33.8012 28.2711C33.9515 28.3784 34.1446 28.3999 34.2734 28.2711C34.4451 28.0779 34.6384 28.0993 34.8745 28.1208L34.853 28.1423ZM33.7368 27.6271C33.9085 27.6271 34.0587 27.6271 34.1875 27.6271C34.2948 27.6271 34.4451 27.6915 34.5095 27.5627C34.5309 27.5198 34.5094 27.4125 34.445 27.3695C34.3592 27.2407 34.2091 27.2407 34.0803 27.2622C33.8871 27.2837 33.7797 27.4125 33.7153 27.6271H33.7368Z" fill="#FF7B00"/>
<path d="M28.6704 28.1629C28.7348 27.8195 28.7992 27.4331 28.9065 27.0467C28.9709 26.8106 29.1639 26.9179 29.3142 26.9394C29.5289 26.9394 29.3787 27.1111 29.3787 27.1755C29.3357 27.4116 29.2714 27.6478 29.2285 27.8839C29.2071 28.0556 29.0781 28.2703 29.3572 28.3347C29.5933 28.399 29.765 28.2702 29.8508 28.0556C29.9582 27.7766 30.0442 27.476 30.0657 27.1755C30.0871 26.8965 30.2372 26.918 30.4304 26.918C30.5592 26.918 30.6023 26.9394 30.5808 27.0897C30.4735 27.5619 30.3661 28.0341 30.2803 28.5064C30.2159 28.7854 29.9152 28.7425 29.8723 28.6781C29.7221 28.4849 29.6576 28.6352 29.5503 28.6781C29.0781 28.8927 28.6704 28.6781 28.6919 28.1844L28.6704 28.1629Z" fill="#FF7B00"/>
<path d="M24.7212 31.4047C24.7212 31.5549 24.7214 31.7052 24.9146 31.7696C25.1077 31.834 25.2365 31.7696 25.3652 31.6193C25.3652 31.5979 25.4082 31.5549 25.4297 31.5334C25.5585 31.4261 25.7731 31.4261 25.8804 31.512C25.9877 31.5979 25.8376 31.7266 25.7732 31.8125C25.5371 32.1345 25.1078 32.2633 24.7 32.1345C24.3351 32.0057 24.2275 31.7266 24.2275 31.3832C24.2275 30.8895 24.5067 30.4817 24.8931 30.3529C25.3009 30.2241 25.7516 30.3314 25.9234 30.6105C25.9877 30.7178 26.0951 30.8466 25.9878 30.9324C25.8805 31.0183 25.6228 31.0183 25.5798 30.9324C25.4511 30.6749 25.2793 30.6319 25.0432 30.7178C24.8715 30.7822 24.7427 31.0827 24.7427 31.4047H24.7212Z" fill="#FF7B00"/>
<path d="M31.8902 27.0671C31.8902 27.0671 31.8901 27.2388 31.8042 27.2388C31.4823 27.1959 31.4822 27.432 31.4392 27.6466C31.3963 27.9257 31.3105 28.1833 31.2676 28.4623C31.2462 28.677 31.1388 28.6984 30.9456 28.6984C30.7524 28.6984 30.731 28.634 30.774 28.4623C30.8384 28.1618 30.9027 27.8613 30.9671 27.5608C30.9885 27.4105 31.096 27.2817 30.8384 27.2173C30.7526 27.1959 30.7095 26.9383 30.9456 26.9168C31.1173 26.9168 31.1387 26.831 31.1602 26.7022C31.2246 26.3587 31.4608 26.2085 31.8042 26.2514C31.9116 26.2514 32.0833 26.1656 32.1048 26.3588C32.1048 26.509 32.0619 26.6593 31.8472 26.6163C31.697 26.6163 31.6326 26.7237 31.6326 26.8524C31.6326 26.9812 31.7613 26.8954 31.8257 26.9383C31.8472 26.9812 31.8687 27.0242 31.8902 27.0671Z" fill="#FF7B00"/>
<path d="M31.8911 27.0678C31.8911 27.0678 31.8481 26.9819 31.8267 26.939C32.1057 26.939 32.4063 27.0249 32.4277 26.5741C32.4277 26.295 32.6637 26.3809 32.814 26.4024C33.0286 26.4024 32.8999 26.5741 32.8999 26.6814C32.8784 26.8102 32.8139 26.9605 33.05 26.939C33.1144 26.939 33.2219 26.939 33.179 27.0463C33.1575 27.1322 33.1788 27.2824 33.05 27.261C32.771 27.2395 32.7497 27.4327 32.7283 27.6259C32.7068 27.7976 32.6638 27.9693 32.6209 28.1196C32.5994 28.2269 32.621 28.3128 32.7283 28.3342C32.8356 28.3342 32.9428 28.3342 32.8999 28.506C32.857 28.6562 32.8141 28.7421 32.6423 28.7421C32.1916 28.7421 32.0199 28.5918 32.1057 28.1625C32.1057 28.141 32.1057 28.1196 32.1057 28.0981C32.1486 27.7332 32.4277 27.3254 31.8911 27.0678Z" fill="#FF7B00"/>
<path d="M37.1493 32.1561C36.7415 32.1561 36.5913 31.9844 36.6772 31.598C36.7201 31.4048 36.7629 31.1902 36.8058 30.997C36.8273 30.8682 36.9562 30.675 36.6557 30.675C36.5698 30.675 36.5912 30.5892 36.5912 30.5462C36.5912 30.4604 36.6128 30.353 36.7416 30.3745C36.9778 30.4174 36.9992 30.2457 37.0207 30.0955C37.0207 29.8593 37.1493 29.8379 37.3639 29.8379C37.5786 29.8379 37.5573 29.9238 37.5143 30.074C37.4714 30.2028 37.3855 30.396 37.686 30.3745C37.7504 30.3745 37.7934 30.4175 37.7719 30.4818C37.7719 30.5462 37.7074 30.675 37.686 30.675C37.2137 30.675 37.3212 31.0614 37.2568 31.319C37.2138 31.5122 37.0206 31.7697 37.4499 31.8127C37.5357 31.8127 37.4928 31.9629 37.4499 32.0273C37.407 32.199 37.2781 32.1561 37.1493 32.1776V32.1561Z" fill="#FF7B00"/>
<path d="M30.3657 32.1116C30.1939 32.1331 30.1296 32.1116 30.1726 31.897C30.2799 31.4677 30.3657 31.0169 30.4516 30.5876C30.4945 30.3515 30.6878 30.2656 30.7951 30.3729C31.0098 30.5661 31.16 30.373 31.3317 30.3515C31.4391 30.3515 31.6108 30.2442 31.6108 30.4159C31.6108 30.5232 31.6967 30.8022 31.3962 30.7808C31.0098 30.7593 30.8595 30.9954 30.7736 31.3174C30.7307 31.5106 30.6662 31.7038 30.6447 31.8755C30.6447 32.0901 30.5162 32.1545 30.3444 32.1116H30.3657Z" fill="#FF7B00"/>
<path d="M27.8772 26.9373C28.0489 27.1304 28.2634 26.9373 28.4995 26.8943C28.5854 26.8943 28.7358 26.8514 28.7144 27.0017C28.6929 27.1305 28.7786 27.3666 28.564 27.3451C28.0059 27.3022 27.9415 27.6886 27.8342 28.0749C27.8128 28.1823 27.7698 28.311 27.7698 28.4398C27.7698 28.7189 27.5979 28.7189 27.4048 28.6974C27.2545 28.6974 27.2332 28.633 27.2546 28.5042C27.3619 28.0535 27.4478 27.6027 27.5337 27.1519C27.5766 26.9802 27.6411 26.8943 27.8772 26.9587V26.9373Z" fill="#FF7B00"/>
<path d="M24.1199 30.3294C24.0126 30.8231 23.9052 31.2524 23.8408 31.7032C23.7979 32.0681 23.6476 32.1754 23.2612 32.0681C23.3686 31.5529 23.476 31.0163 23.6047 30.5012C23.6906 30.1577 23.9267 30.4153 24.1199 30.3294Z" fill="#FF7B00"/>
<path d="M36.3989 30.3731C36.2916 30.9097 36.1627 31.4249 36.0769 31.94C36.0125 32.2191 35.8194 32.0903 35.6691 32.0903C35.476 32.0903 35.5832 31.9401 35.6047 31.8542C35.6691 31.4678 35.7978 31.1029 35.8408 30.7166C35.8837 30.3517 36.0554 30.2658 36.3989 30.3731Z" fill="#FF7B00"/>
<path d="M24.228 29.6869C24.2495 30.0089 24.0994 30.0948 23.8203 30.0733C23.713 30.0733 23.6914 30.0303 23.6914 29.923C23.7558 29.5581 24.0134 29.7084 24.2065 29.7084L24.228 29.6869Z" fill="#FF7B00"/>
<path d="M36.3123 29.6865C36.4411 29.6865 36.5271 29.6865 36.5056 29.8582C36.4842 30.0943 36.3339 30.0943 36.1836 30.0729C36.0977 30.0729 35.9902 30.1158 35.9902 29.9441C35.9902 29.7294 36.1191 29.6436 36.3123 29.6865Z" fill="#FF7B00"/>
<path d="M30.4742 26.2733C30.4742 26.5094 30.4097 26.7026 30.1092 26.6382C29.959 26.6167 29.9806 26.5309 29.9806 26.445C30.045 26.1016 30.281 26.2948 30.4527 26.2733H30.4742Z" fill="#FF7B00"/>
<path d="M29.5298 26.638C29.5298 26.638 29.3149 26.681 29.3149 26.4878C29.3149 26.316 29.3793 26.2087 29.5725 26.2517C29.6584 26.2517 29.8088 26.1872 29.7874 26.4019C29.7874 26.5736 29.723 26.6809 29.5298 26.638Z" fill="#FF7B00"/>
</svg>
