<svg width="61" height="28" viewBox="0 0 61 28" fill="none" xmlns="http://www.w3.org/2000/svg">
<path d="M55.3637 22.0529V13.2175L51.3022 22.0529H47.5258L43.4643 13.2175V22.0529H38.0849V4.41772H45.2813L49.4495 13.3244L53.618 4.41772H60.6363V0H0V4.41772H5.27267L12.1842 13.075V4.41772H17.5639V22.0529H12.2556L5.4151 13.3956V22.0529H0.035444V27.8956H60.672V22.0529H55.4704H55.3637ZM36.5527 11.1868H31.1733V9.97546C31.1733 9.97546 31.1376 9.72607 31.0663 9.58357C30.995 9.44106 30.8881 9.40542 30.7812 9.40542H24.7249C24.7249 9.40542 24.5467 9.47667 24.4755 9.61917C24.4042 9.76168 24.3685 9.86858 24.3685 9.97546V16.5307C24.3685 16.5307 24.3686 16.7801 24.4755 16.9226C24.5467 17.0651 24.618 17.1008 24.7249 17.1008H30.7812C30.7812 17.1008 30.995 17.0295 31.0663 16.9226C31.1376 16.7801 31.1733 16.6733 31.1733 16.5307V15.3195H36.5527V18.8821C36.5527 19.2028 36.4815 19.5234 36.3746 19.8797C36.2321 20.2359 36.0896 20.5922 35.8758 20.9129C35.662 21.2335 35.4483 21.5185 35.1989 21.7323C34.9495 21.946 34.736 22.0529 34.5222 22.0529H21.0196C20.7702 22.0529 20.5564 21.946 20.307 21.7323C20.0576 21.5185 19.8439 21.2335 19.6657 20.9129C19.4876 20.5922 19.3095 20.2359 19.2026 19.8797C19.0601 19.5234 19.0245 19.2028 19.0245 18.8821V7.65975C19.0245 7.37474 19.0957 7.05409 19.2026 6.69782C19.3451 6.30593 19.4876 5.98528 19.6657 5.62901C19.8439 5.30837 20.0576 5.02337 20.307 4.80961C20.5564 4.59585 20.7702 4.48899 21.0196 4.48899H34.5222C34.736 4.48899 34.9495 4.59585 35.1989 4.80961C35.4483 5.02337 35.662 5.30837 35.8758 5.62901C36.0896 5.94965 36.2321 6.30593 36.3746 6.69782C36.5171 7.05409 36.5527 7.41037 36.5527 7.65975V11.2224V11.1868Z" fill="#FF7B00"/>
</svg>
