<svg width="47" height="29" viewBox="0 0 47 29" fill="none" xmlns="http://www.w3.org/2000/svg">
<path d="M8.74264 28.0825C9.0909 26.3412 9.47091 24.5999 9.81917 22.8902C10.1674 21.1806 10.5474 19.4393 10.8957 17.698H8.96429C8.36275 17.698 7.72968 17.698 7.12814 17.698C6.14668 17.698 5.2918 17.3181 4.69026 16.5899C4.37366 16.1783 4.1836 15.6717 3.99364 15.1652C3.77202 14.5636 3.58221 13.9304 3.36059 13.3289C3.10731 12.6007 2.85403 11.8409 2.56909 11.1127C2.31581 10.4478 2.0309 9.78296 1.80928 9.1181C1.61932 8.61154 1.49257 8.105 1.30261 7.59844C1.08099 6.93358 0.859436 6.26868 0.574496 5.63548C0.0995955 4.5907 -0.122133 3.51426 0.0678273 2.3745C0.194467 1.64632 0.574403 1.01315 1.27092 0.569906C1.87246 0.158325 2.50565 0.0316909 3.23383 0.0316909C9.91409 0.0316909 16.5944 0.0316909 23.2747 0.0316909C23.8446 0.0316909 23.8445 0.0316851 24.0345 0.569906C24.4461 1.70967 24.826 2.88108 25.2376 4.02084C25.6808 5.22392 26.1557 6.427 26.5989 7.63008C27.0105 8.76984 27.3905 9.94125 27.802 11.081C28.182 12.1575 28.6252 13.2339 29.0368 14.3103C29.2901 15.0069 29.5117 15.735 29.7649 16.4632C29.9866 17.0964 30.2399 17.698 30.4616 18.2995C30.5565 18.5211 30.5881 18.7428 30.7147 18.9644C30.778 19.0594 30.9048 19.2177 30.9997 19.2177C32.5194 19.2177 34.0708 19.2177 35.5905 19.2177C35.5905 19.2177 35.6537 19.186 35.6537 19.1543C35.4004 18.4261 35.1471 17.698 34.8939 17.0015C34.5456 15.9567 34.1658 14.9119 33.8175 13.8988C33.5326 13.0756 33.2159 12.2524 32.9309 11.4293C32.6777 10.7011 32.4561 9.9729 32.2028 9.24472C31.9179 8.45322 31.6012 7.69341 31.3163 6.90191C30.968 5.95211 30.6831 5.00228 30.3665 4.05248C30.1132 3.35596 29.8917 2.65946 29.6384 1.9946C29.4168 1.42472 29.2268 0.854858 29.0051 0.284977C28.9418 0.126677 29.0051 0 29.1951 0C29.2584 0 29.3217 0 29.385 0C32.0445 0 34.7357 0 37.3951 0C37.775 0 37.9017 0.189989 37.9967 0.474929C38.2183 1.04481 38.4398 1.64634 38.6614 2.24788C38.883 2.84942 39.073 3.45094 39.2946 4.05248C39.4529 4.49572 39.6745 4.93895 39.8328 5.38219C40.1811 6.30034 40.466 7.25015 40.8143 8.16829C41.0992 8.89647 41.4159 9.62466 41.6691 10.3528C41.8274 10.7328 41.9224 11.1443 42.049 11.5242C42.239 12.0308 42.4289 12.569 42.6189 13.0756C42.9038 13.8354 43.1572 14.6269 43.4421 15.3868C43.5687 15.7034 43.6637 16.0516 43.7903 16.3682C43.9803 16.9064 44.1702 17.4763 44.3602 18.0146C44.5818 18.6161 44.8034 19.2176 44.9934 19.8509C45.215 20.5474 45.405 21.2439 45.6266 21.9087C45.7533 22.257 45.8799 22.6053 46.0066 22.9535C46.4181 23.9666 46.5131 25.0115 46.4181 26.0562C46.4181 26.3095 46.1966 26.5944 46.0699 26.816C45.785 27.3226 45.3417 27.7025 44.8351 27.9558C44.6135 28.0825 44.3286 28.1458 44.0436 28.1458C37.8699 28.1458 31.6646 28.1458 25.4909 28.1458C25.111 28.1458 24.9844 27.9558 24.8894 27.6709C24.6361 26.9744 24.3828 26.2778 24.1296 25.5813C23.9079 25.0114 23.7179 24.4415 23.4963 23.84C23.3064 23.2701 23.1164 22.7319 22.8948 22.162C22.6098 21.3389 22.2933 20.5157 21.9767 19.6925C21.7867 19.1543 21.5968 18.6478 21.3752 18.1095C21.3435 17.9829 21.28 17.8563 21.2167 17.698C20.7735 17.698 20.2987 17.698 19.7922 17.698C19.7605 17.698 19.6654 17.7613 19.6654 17.8246C19.5704 18.2362 19.5072 18.6794 19.4123 19.091C19.3173 19.5659 19.1905 20.0408 19.0955 20.5474C19.0322 20.8007 19.0006 21.0539 18.969 21.2755C18.874 21.7504 18.7472 22.257 18.6522 22.7319C18.5889 22.9535 18.5573 23.2068 18.5257 23.4284C18.4307 23.935 18.3041 24.4416 18.2092 24.9481C18.1142 25.423 18.0508 25.8979 17.9558 26.3728C17.8608 26.816 17.7658 27.2276 17.6708 27.6709C17.6708 27.7975 17.6393 27.9242 17.6076 28.0825H8.80602H8.74264ZM9.75579 6.49032C10.104 7.3768 10.4206 8.23164 10.7372 9.08646C10.9272 9.59302 11.1807 10.0996 11.3073 10.6378C11.3706 10.9227 11.4971 11.0177 11.7821 11.0177C14.0299 11.0177 16.3095 11.0177 18.5574 11.0177C18.6523 11.0177 18.7473 11.0177 18.9056 10.986C18.8423 10.8594 18.8107 10.7644 18.779 10.6695C18.4941 9.90962 18.2091 9.18142 17.9558 8.42158C17.7659 7.91502 17.5759 7.37678 17.386 6.87022C17.291 6.6486 17.1959 6.49032 16.911 6.49032C14.6315 6.49032 12.352 6.49032 10.0725 6.49032H9.75579Z" fill="#FF7B00"/>
</svg>
