<svg width="598" height="202" viewBox="0 0 598 202" fill="none" xmlns="http://www.w3.org/2000/svg">
<path d="M9 1H371.043C378.232 1.00007 381.772 9.74458 376.608 14.7461L187.297 198.1C185.805 199.545 183.808 200.354 181.73 200.354H9C4.58189 200.354 1.00026 196.772 1 192.354V9C1 4.58172 4.58172 1 9 1Z" fill="#212121" stroke="#252525" stroke-width="2"/>
<path d="M416.417 1H588.704C593.122 1.0001 596.704 4.58178 596.704 9V192.354C596.704 196.772 593.122 200.353 588.704 200.354H227.894C220.713 200.353 217.169 191.625 222.316 186.618L410.84 3.26465C412.333 1.81249 414.334 1.00001 416.417 1Z" fill="#212121" stroke="#252525" stroke-width="2"/>
<path d="M150.215 117.88C145.188 117.88 140.116 117.88 135.09 117.88C134.411 117.88 134.274 117.699 134.32 117.065C134.32 112.582 134.32 108.053 134.32 103.57C134.32 102.936 134.501 102.8 135.09 102.8C144.328 102.8 153.566 102.8 162.804 102.8C162.985 102.8 163.166 102.8 163.347 102.8C164.57 102.8 165.385 102.166 165.476 101.125C165.566 100.174 164.842 99.268 163.71 99.0416C163.347 98.951 162.94 98.951 162.577 98.951C157.37 98.951 152.162 98.951 147 98.951C145.822 98.951 144.781 98.7246 143.739 98.2265C136.675 94.9207 132.69 87.7657 133.46 80.339C134.32 71.7802 140.932 65.7573 148.132 64.6252C149.173 64.4441 150.169 64.3535 151.211 64.3535C155.241 64.3535 159.272 64.3535 163.347 64.3535C163.891 64.3535 164.027 64.4893 164.027 65.0328C164.027 69.6518 164.027 74.3162 164.027 78.9352C164.027 79.4786 163.891 79.6144 163.347 79.6144C159.362 79.6144 155.423 79.6144 151.438 79.6144C149.853 79.6144 148.947 80.2937 148.947 81.5164C148.947 82.7391 149.853 83.4183 151.392 83.4183C155.83 83.4183 160.314 83.3278 164.752 83.5089C170.367 83.7354 174.804 86.3166 177.974 90.9356C185.22 101.487 178.744 116.023 166.064 117.789C164.208 118.061 162.351 117.88 160.494 117.88C157.098 117.88 153.702 117.88 150.305 117.88V117.971L150.215 117.88Z" fill="#FF7B00"/>
<path d="M132.917 119.056C132.917 124.219 132.917 129.381 132.917 134.589C132.917 135.268 132.735 135.359 132.101 135.359C126.577 135.359 121.097 135.359 115.572 135.359C108.146 135.268 101.806 132.506 96.7796 127.026C84.5981 113.713 89.4886 92.5646 106.199 85.8172C109.233 84.5945 112.357 84.0059 115.618 84.0059C120.825 84.0059 126.033 84.0059 131.196 84.0059C131.739 84.0059 131.92 84.0964 132.011 84.6851C132.373 87.3569 133.324 89.8023 134.864 92.0213C135.09 92.3836 135.226 92.7005 135.226 93.1534C135.226 94.9195 135.226 96.6403 135.226 98.4064C135.226 99.0404 135 99.1309 134.456 99.1309C128.524 99.1309 122.547 99.1309 116.614 99.1309C111.452 99.1309 107.24 102.21 105.882 106.92C103.754 114.256 109.459 121.411 117.067 120.958C117.429 120.958 117.565 120.822 117.52 120.46C117.52 119.736 117.746 118.83 117.429 118.241C117.067 117.562 116.116 117.969 115.392 117.834C112.176 117.245 109.731 114.573 109.278 111.131C108.916 108.188 110.863 104.973 113.807 103.614C114.984 103.071 116.207 102.89 117.475 102.89C122.411 102.89 127.301 102.89 132.237 102.89C132.781 102.89 132.917 103.025 132.917 103.569C132.917 108.777 132.917 113.939 132.917 119.147V119.056Z" fill="#FF7B00"/>
<path d="M136.584 132.235C135.407 132.235 134.728 131.828 134.546 130.967C134.546 130.786 134.275 130.469 134.637 130.424C134.909 130.424 135.361 130.152 135.543 130.65C135.814 131.466 136.448 131.375 137.082 131.284C137.354 131.284 137.58 131.013 137.626 130.696C137.671 130.333 137.445 130.198 137.173 130.062C136.811 129.926 136.403 129.835 135.995 129.654C135.452 129.428 135.045 129.065 135.045 128.386C135.045 127.707 135.361 127.299 135.95 126.982C136.992 126.484 138.441 126.801 138.848 127.616C138.939 127.843 139.211 128.25 138.939 128.341C138.667 128.477 138.124 128.658 137.943 128.069C137.852 127.752 137.58 127.662 137.263 127.616C136.811 127.616 136.313 127.526 136.177 128.115C136.041 128.658 136.584 128.749 136.947 128.884C137.128 128.93 137.309 128.975 137.445 129.02C138.169 129.201 138.713 129.564 138.713 130.424C138.713 131.194 138.26 131.737 137.49 132.009C137.173 132.1 136.901 132.145 136.584 132.145V132.235Z" fill="#FF7B00"/>
<path d="M138.757 120.961C138.44 122.456 138.214 123.678 137.897 124.901C137.58 126.169 136.04 126.758 134.863 126.078C134.591 125.897 134.41 125.671 134.319 125.354C134.274 125.173 134.365 125.082 134.501 125.128C134.818 125.128 135.089 124.992 135.406 125.354C135.995 125.988 136.629 125.671 136.901 124.584C136.584 124.675 136.312 124.901 135.995 124.856C135.587 124.856 135.225 124.72 134.953 124.403C134.365 123.769 134.455 122.501 135.135 121.686C135.769 120.961 136.584 120.871 137.399 121.369C137.49 121.414 137.58 121.641 137.67 121.459C137.897 120.78 138.395 121.369 138.803 120.916L138.757 120.961ZM136.674 121.822C136.131 121.822 135.633 122.365 135.633 123.09C135.633 123.543 135.723 123.995 136.267 124.041C136.856 124.086 137.354 123.452 137.354 122.727C137.354 122.229 137.218 121.867 136.674 121.822Z" fill="#FF7B00"/>
<path d="M144.057 124.539C143.559 125.037 144.238 126.531 142.608 126.124C142.925 124.584 143.287 122.999 143.604 121.459C143.695 120.916 144.193 121.052 144.374 121.142C144.736 121.323 144.917 121.187 145.234 121.142C146.276 120.825 147.091 121.414 147.091 122.501C147.091 123.044 147 123.588 146.728 124.04C146.14 125.037 145.053 125.218 144.057 124.539ZM144.283 123.271C144.283 123.859 144.465 124.176 144.917 124.222C145.551 124.267 146.095 123.633 146.095 122.772C146.095 122.32 145.959 121.867 145.416 121.867C144.827 121.867 144.329 122.455 144.283 123.271Z" fill="#FF7B00"/>
<path d="M147.045 127.075C146.954 127.573 146.863 128.116 146.773 128.66C147.09 128.524 147.362 128.433 147.634 128.388C148.63 128.162 149.173 128.66 148.992 129.701C148.901 130.245 148.72 130.788 148.675 131.377C148.63 132.147 148.267 132.328 147.498 132.101C147.633 131.467 147.769 130.788 147.905 130.109C147.95 129.792 148.177 129.339 147.679 129.203C147.181 129.067 146.819 129.294 146.637 129.746C146.366 130.38 146.32 131.06 146.139 131.694C146.093 131.875 146.139 132.192 145.777 132.192C145.324 132.192 144.916 132.237 145.143 131.513C145.46 130.29 145.732 129.067 145.913 127.845C146.049 127.075 146.366 126.848 147.09 127.12L147.045 127.075Z" fill="#FF7B00"/>
<path d="M158.457 126.982C158.412 127.299 158.366 127.571 158.321 127.798C158.276 128.024 158.185 128.25 158.14 128.522C158.502 128.658 158.774 128.386 159.091 128.341C160.042 128.205 160.54 128.658 160.404 129.609C160.313 130.198 160.133 130.741 160.087 131.33C159.997 132.1 159.634 132.326 158.91 132.054C159.046 131.375 159.181 130.65 159.317 129.971C159.363 129.699 159.499 129.337 159.091 129.201C158.729 129.065 158.366 129.201 158.14 129.564C157.778 130.107 157.732 130.741 157.642 131.33C157.551 132.054 157.234 132.371 156.419 132.1C156.736 130.56 157.053 128.975 157.416 127.435C157.551 126.711 158.095 127.209 158.502 127.073L158.457 126.982Z" fill="#FF7B00"/>
<path d="M142.471 123.722C142.018 124.764 141.022 125.217 139.98 124.9C139.165 124.628 138.757 123.904 138.984 122.907C139.21 121.685 140.071 120.96 141.157 121.051C142.199 121.141 142.833 121.82 142.742 122.817C142.742 123.134 142.607 123.27 142.29 123.27C141.656 123.27 141.067 123.27 140.433 123.27C140.252 123.27 139.98 123.134 139.935 123.451C139.935 123.677 139.935 123.904 140.207 124.039C140.524 124.221 140.931 124.311 141.203 124.039C141.565 123.632 141.973 123.722 142.471 123.768V123.722ZM140.977 122.636C141.203 122.454 141.701 122.862 141.701 122.273C141.701 121.866 141.384 121.775 141.021 121.82C140.614 121.82 140.161 122.002 140.161 122.409C140.161 122.817 140.66 122.5 140.931 122.636H140.977Z" fill="#FF7B00"/>
<path d="M153.113 130.965C152.66 132.006 151.709 132.459 150.668 132.142C149.807 131.87 149.4 131.1 149.626 130.104C149.853 128.927 150.758 128.157 151.845 128.293C152.389 128.338 152.887 128.519 153.204 129.063C153.747 130.014 153.475 130.512 152.388 130.512C151.981 130.512 151.574 130.512 151.166 130.512C150.985 130.512 150.623 130.376 150.623 130.693C150.623 131.01 150.759 131.236 151.076 131.372C151.347 131.463 151.664 131.508 151.89 131.282C152.253 130.874 152.66 130.874 153.204 130.919L153.113 130.965ZM151.619 129.923C151.755 129.606 152.343 130.195 152.343 129.561C152.343 129.199 152.027 129.063 151.71 129.063C151.302 129.063 150.849 129.244 150.849 129.651C150.849 130.104 151.347 129.742 151.619 129.923Z" fill="#FF7B00"/>
<path d="M164.526 130.967C164.254 132.235 162.533 132.507 161.718 132.009C160.903 131.51 160.767 130.197 161.401 129.201C162.035 128.25 163.394 128.023 164.254 128.703C164.752 129.11 164.798 129.654 164.753 130.242C164.753 130.605 164.526 130.559 164.254 130.559C163.665 130.559 163.077 130.559 162.488 130.559C162.307 130.559 161.99 130.424 161.945 130.786C161.945 131.058 162.081 131.284 162.307 131.42C162.624 131.556 162.941 131.601 163.167 131.375C163.529 130.922 163.982 131.012 164.481 131.012L164.526 130.967ZM162.126 129.88C162.488 129.88 162.805 129.88 163.122 129.88C163.348 129.88 163.756 130.107 163.756 129.654C163.756 129.201 163.394 129.065 162.986 129.11C162.579 129.156 162.262 129.337 162.126 129.88Z" fill="#FF7B00"/>
<path d="M163.529 123.723C163.122 124.719 162.216 125.172 161.22 124.9C160.314 124.674 159.906 123.949 160.088 122.862C160.269 121.776 161.174 120.96 162.216 121.006C163.303 121.006 163.937 121.73 163.846 122.772C163.846 123.089 163.71 123.225 163.393 123.225C162.759 123.225 162.17 123.225 161.536 123.225C161.355 123.225 161.084 123.089 161.038 123.406C161.038 123.632 161.084 123.859 161.31 123.995C161.627 124.221 162.035 124.266 162.306 123.995C162.669 123.587 163.076 123.632 163.575 123.677L163.529 123.723ZM161.174 122.636C161.537 122.636 161.853 122.636 162.125 122.636C162.352 122.636 162.669 122.772 162.805 122.5C162.85 122.41 162.804 122.183 162.669 122.093C162.487 121.821 162.171 121.821 161.899 121.866C161.491 121.911 161.265 122.183 161.129 122.636H161.174Z" fill="#FF7B00"/>
<path d="M150.486 123.768C150.622 123.043 150.758 122.228 150.984 121.413C151.12 120.915 151.528 121.141 151.845 121.186C152.297 121.186 151.981 121.549 151.981 121.684C151.89 122.183 151.754 122.681 151.664 123.179C151.618 123.541 151.346 123.994 151.935 124.13C152.433 124.266 152.796 123.994 152.977 123.541C153.203 122.952 153.385 122.318 153.43 121.684C153.475 121.096 153.792 121.141 154.199 121.141C154.471 121.141 154.562 121.186 154.517 121.503C154.29 122.5 154.064 123.496 153.883 124.492C153.747 125.081 153.113 124.99 153.022 124.854C152.705 124.447 152.569 124.764 152.343 124.854C151.346 125.307 150.486 124.854 150.532 123.813L150.486 123.768Z" fill="#FF7B00"/>
<path d="M142.155 130.606C142.155 130.923 142.155 131.24 142.563 131.376C142.97 131.512 143.242 131.376 143.514 131.059C143.514 131.014 143.604 130.923 143.649 130.878C143.921 130.652 144.374 130.652 144.6 130.833C144.827 131.014 144.51 131.286 144.374 131.467C143.876 132.146 142.97 132.418 142.11 132.146C141.34 131.874 141.113 131.286 141.113 130.561C141.113 129.52 141.702 128.659 142.517 128.388C143.378 128.116 144.329 128.342 144.691 128.931C144.827 129.157 145.053 129.429 144.827 129.61C144.601 129.791 144.057 129.791 143.966 129.61C143.695 129.067 143.332 128.976 142.834 129.157C142.472 129.293 142.2 129.927 142.2 130.606H142.155Z" fill="#FF7B00"/>
<path d="M157.278 121.456C157.278 121.456 157.278 121.818 157.097 121.818C156.418 121.728 156.418 122.226 156.327 122.679C156.236 123.268 156.056 123.811 155.965 124.4C155.92 124.853 155.693 124.898 155.286 124.898C154.878 124.898 154.833 124.762 154.924 124.4C155.059 123.766 155.195 123.132 155.331 122.498C155.376 122.181 155.603 121.909 155.059 121.773C154.878 121.728 154.787 121.185 155.286 121.139C155.648 121.139 155.693 120.958 155.738 120.686C155.874 119.962 156.373 119.645 157.097 119.735C157.324 119.735 157.686 119.554 157.731 119.962C157.731 120.279 157.641 120.596 157.188 120.505C156.871 120.505 156.735 120.732 156.735 121.003C156.735 121.275 157.007 121.094 157.142 121.184C157.188 121.275 157.233 121.366 157.278 121.456Z" fill="#FF7B00"/>
<path d="M157.281 121.456C157.281 121.456 157.19 121.275 157.145 121.184C157.733 121.184 158.367 121.365 158.413 120.414C158.413 119.826 158.91 120.007 159.227 120.052C159.68 120.052 159.409 120.414 159.409 120.641C159.363 120.913 159.227 121.229 159.726 121.184C159.861 121.184 160.088 121.184 159.997 121.411C159.952 121.592 159.997 121.909 159.726 121.864C159.137 121.818 159.092 122.226 159.047 122.633C159.001 122.996 158.911 123.358 158.82 123.675C158.775 123.901 158.82 124.082 159.047 124.128C159.273 124.128 159.499 124.128 159.409 124.49C159.318 124.807 159.228 124.988 158.865 124.988C157.914 124.988 157.552 124.671 157.733 123.765C157.733 123.72 157.733 123.675 157.733 123.63C157.824 122.86 158.413 121.999 157.281 121.456Z" fill="#FF7B00"/>
<path d="M168.374 132.192C167.514 132.192 167.197 131.829 167.378 131.014C167.469 130.607 167.559 130.154 167.65 129.746C167.695 129.474 167.967 129.067 167.333 129.067C167.152 129.067 167.197 128.886 167.197 128.795C167.197 128.614 167.242 128.388 167.514 128.433C168.012 128.523 168.058 128.161 168.103 127.844C168.103 127.346 168.374 127.301 168.827 127.301C169.28 127.301 169.235 127.482 169.144 127.799C169.054 128.071 168.872 128.478 169.506 128.433C169.642 128.433 169.733 128.523 169.688 128.659C169.688 128.795 169.552 129.067 169.506 129.067C168.51 129.067 168.737 129.882 168.601 130.425C168.51 130.833 168.103 131.376 169.008 131.467C169.19 131.467 169.099 131.784 169.008 131.92C168.918 132.282 168.646 132.192 168.374 132.237V132.192Z" fill="#FF7B00"/>
<path d="M154.063 132.102C153.701 132.147 153.565 132.102 153.656 131.649C153.882 130.743 154.063 129.792 154.244 128.886C154.335 128.388 154.743 128.207 154.969 128.434C155.422 128.841 155.739 128.434 156.101 128.388C156.328 128.388 156.69 128.162 156.69 128.524C156.69 128.751 156.871 129.339 156.237 129.294C155.422 129.249 155.105 129.747 154.924 130.426C154.833 130.834 154.697 131.241 154.652 131.603C154.652 132.056 154.381 132.192 154.018 132.102H154.063Z" fill="#FF7B00"/>
<path d="M148.812 121.186C149.174 121.594 149.627 121.187 150.125 121.096C150.306 121.096 150.624 121.005 150.578 121.322C150.533 121.594 150.714 122.092 150.261 122.047C149.084 121.956 148.948 122.772 148.722 123.587C148.676 123.813 148.586 124.085 148.586 124.356C148.586 124.945 148.223 124.945 147.816 124.9C147.499 124.9 147.454 124.764 147.499 124.492C147.725 123.541 147.906 122.59 148.088 121.639C148.178 121.277 148.314 121.096 148.812 121.232V121.186Z" fill="#FF7B00"/>
<path d="M140.886 128.342C140.66 129.383 140.433 130.289 140.297 131.24C140.207 132.01 139.89 132.236 139.075 132.01C139.301 130.923 139.528 129.791 139.799 128.704C139.981 127.98 140.479 128.523 140.886 128.342Z" fill="#FF7B00"/>
<path d="M166.791 128.431C166.564 129.563 166.292 130.65 166.111 131.736C165.975 132.325 165.568 132.053 165.251 132.053C164.844 132.053 165.07 131.736 165.115 131.555C165.251 130.74 165.523 129.97 165.613 129.155C165.704 128.385 166.066 128.204 166.791 128.431Z" fill="#FF7B00"/>
<path d="M141.114 126.984C141.159 127.664 140.842 127.845 140.253 127.799C140.027 127.799 139.981 127.709 139.981 127.482C140.117 126.712 140.661 127.03 141.068 127.03L141.114 126.984Z" fill="#FF7B00"/>
<path d="M166.609 126.982C166.88 126.982 167.062 126.982 167.017 127.344C166.971 127.842 166.654 127.842 166.337 127.797C166.156 127.797 165.929 127.887 165.929 127.525C165.929 127.072 166.201 126.891 166.609 126.982Z" fill="#FF7B00"/>
<path d="M154.292 119.781C154.292 120.279 154.156 120.687 153.522 120.551C153.205 120.505 153.25 120.324 153.25 120.143C153.386 119.419 153.884 119.826 154.246 119.781H154.292Z" fill="#FF7B00"/>
<path d="M152.299 120.552C152.299 120.552 151.846 120.642 151.846 120.235C151.846 119.873 151.982 119.646 152.39 119.737C152.571 119.737 152.888 119.601 152.843 120.054C152.843 120.416 152.707 120.642 152.299 120.552Z" fill="#FF7B00"/>
<path d="M511.654 82.7693C507.609 76.1683 502.286 71.5547 496.394 67.9348C484.328 60.5532 470.913 58.4239 457.64 59.7015C449.549 60.4823 441.671 62.8245 434.289 67.0122C427.333 70.987 421.158 76.2393 416.686 84.1888C412.782 91.0736 411.15 98.6682 412.428 107.115C413.492 114.07 416.473 119.82 420.377 124.717C426.339 132.099 433.579 136.641 441.457 139.764C442.877 140.332 444.368 140.829 446 141.397V139.48C446 127.059 446 114.638 446 102.217C446 99.4489 446.639 97.0357 447.988 94.9064C455.014 83.9758 470.984 84.1178 479.146 92.5641C484.115 97.6745 484.257 105.056 479.431 110.38C475.953 114.212 471.694 115.845 467.152 116.413C465.164 116.697 463.106 116.697 461.26 117.548C458.705 118.755 458.563 121.594 460.763 123.652C466.868 129.544 472.971 135.435 479.146 141.326C479.572 141.752 480.353 142.036 480.921 141.823C484.754 140.474 488.587 139.267 492.278 137.493C499.446 134.015 505.834 128.976 510.874 121.452C518.823 109.599 519.036 94.9064 511.513 82.6982L511.654 82.7693ZM501.788 117.69C497.033 124.788 490.787 129.047 483.831 131.957C483.547 132.099 483.121 132.099 482.908 131.886C480.14 129.26 477.443 126.633 474.746 124.007C474.746 124.007 474.746 123.865 474.675 123.581C478.65 122.304 482.341 120.529 485.677 117.619C488.232 115.419 490.432 112.793 491.852 109.315C494.478 103.211 493.768 96.255 490.006 90.7187C481.986 78.9364 467.648 76.7362 456.292 79.4333C450.543 80.7819 445.006 83.621 440.677 88.6604C437.412 92.4932 435.567 97.1067 435.638 102.998C435.779 110.238 435.638 117.406 435.638 124.646V126.42C429.108 121.949 421.3 112.154 422.435 99.3071C422.932 93.4869 425.133 88.5894 428.256 84.4017C432.798 78.2267 438.476 74.3939 444.722 71.6968C458.35 65.8056 475.101 65.9475 488.303 73.5421C490.929 75.0327 493.484 76.9491 495.826 79.0784C498.169 81.2077 500.369 83.7629 502.214 86.602C508.46 96.3259 508.247 108.25 501.788 117.832V117.69Z" fill="#FF7B00"/>
<path d="M472.544 101.58C472.544 104.987 468.995 107.826 464.594 107.826C460.194 107.826 456.645 105.058 456.645 101.58C456.645 98.1021 460.194 95.334 464.594 95.334C468.995 95.334 472.544 98.1021 472.544 101.58Z" fill="#FF7B00"/>
</svg>
