<svg width="138" height="138" viewBox="0 0 138 138" fill="none" xmlns="http://www.w3.org/2000/svg">
<circle cx="69" cy="69" r="64" fill="#E75E0E"/>
<path d="M59.7703 71.9973L59.4609 72.1565C58.5379 72.6311 57.9577 73.5819 57.9577 74.6198V89.5332C57.9577 91.5467 55.8775 92.8875 54.0437 92.0559L42.626 86.8781C41.6359 86.4291 41 85.4425 41 84.3554V62.837C41 60.8224 43.0822 59.4816 44.9162 60.3153L59.6497 67.0123C61.7576 67.9704 61.8294 70.9383 59.7703 71.9973Z" fill="#171717"/>
<path d="M92.9145 58.9629L63.356 74.9045C62.4597 75.3879 61.9009 76.3242 61.9009 77.3426V92.8187C61.9009 93.9134 62.5456 94.9054 63.5459 95.35L67.6772 97.1861C68.5056 97.5543 69.4617 97.4938 70.2372 97.0242L95.6644 81.6246C96.4931 81.1227 96.9994 80.2242 96.9994 79.2553V61.4009C96.9994 59.3041 94.76 57.9675 92.9145 58.9629Z" fill="#171717"/>
<path d="M91.9015 55.0794L70.2101 66.3834C69.4471 66.781 68.5427 66.8015 67.7625 66.4389L46.2085 56.4208C44.1054 55.4433 44.0629 52.4685 46.1373 51.4313L67.8317 40.5841C68.5715 40.2142 69.4378 40.1943 70.1938 40.5297L91.7447 50.091C93.8655 51.0319 93.959 54.0072 91.9015 55.0794Z" fill="#171717"/>
</svg>
