<svg width="598" height="202" viewBox="0 0 598 202" fill="none" xmlns="http://www.w3.org/2000/svg">
<path d="M588.704 1H226.661C219.472 1.00007 215.932 9.74458 221.095 14.7461L410.407 198.1C411.899 199.545 413.896 200.354 415.973 200.354H588.704C593.122 200.354 596.704 196.772 596.704 192.354V9C596.704 4.58172 593.122 1 588.704 1Z" fill="#212121" stroke="#252525" stroke-width="2"/>
<path d="M181.287 1H8.99976C4.58158 1.0001 0.999756 4.58178 0.999756 9V192.354C1.00002 196.772 4.58172 200.353 8.99976 200.354H369.81C376.991 200.353 380.535 191.625 375.387 186.618L186.864 3.26465C185.371 1.81249 183.37 1.00001 181.287 1Z" fill="#212121" stroke="#252525" stroke-width="2"/>
<path d="M102.148 130.599C102.883 126.926 103.685 123.252 104.419 119.645C105.154 116.038 105.956 112.365 106.691 108.691H102.616C101.347 108.691 100.011 108.691 98.7421 108.691C96.6715 108.691 94.868 107.889 93.5989 106.353C92.931 105.485 92.53 104.416 92.1293 103.348C91.6617 102.078 91.2613 100.743 90.7937 99.4735C90.2594 97.9373 89.725 96.3343 89.1239 94.798C88.5895 93.3954 87.9885 91.9927 87.5209 90.59C87.1202 89.5213 86.8527 88.4527 86.452 87.384C85.9844 85.9813 85.517 84.5786 84.9159 83.2427C83.914 81.0385 83.4462 78.7676 83.847 76.363C84.1141 74.8268 84.9157 73.491 86.3851 72.5558C87.6542 71.6875 88.99 71.4204 90.5263 71.4204C104.62 71.4204 118.713 71.4204 132.807 71.4204C134.009 71.4204 134.009 71.4204 134.41 72.5558C135.278 74.9604 136.079 77.4317 136.948 79.8363C137.883 82.3744 138.885 84.9126 139.82 87.4507C140.688 89.8553 141.49 92.3266 142.358 94.7312C143.159 97.0021 144.095 99.2731 144.963 101.544C145.497 103.014 145.965 104.55 146.499 106.086C146.967 107.422 147.501 108.691 147.969 109.96C148.169 110.428 148.236 110.895 148.503 111.363C148.636 111.563 148.904 111.897 149.104 111.897C152.31 111.897 155.583 111.897 158.789 111.897C158.789 111.897 158.923 111.83 158.923 111.763C158.388 110.227 157.854 108.691 157.32 107.222C156.585 105.017 155.784 102.813 155.049 100.676C154.448 98.9391 153.78 97.2025 153.178 95.4659C152.644 93.9297 152.177 92.3934 151.642 90.8571C151.041 89.1873 150.373 87.5843 149.772 85.9145C149.037 83.9107 148.436 81.9068 147.768 79.9031C147.234 78.4336 146.766 76.9642 146.232 75.5615C145.765 74.3592 145.364 73.157 144.896 71.9547C144.763 71.6208 144.896 71.3535 145.297 71.3535C145.43 71.3535 145.564 71.3535 145.698 71.3535C151.308 71.3535 156.986 71.3535 162.597 71.3535C163.398 71.3535 163.665 71.7543 163.866 72.3555C164.333 73.5578 164.8 74.8268 165.268 76.0959C165.736 77.365 166.136 78.634 166.604 79.9031C166.938 80.8382 167.405 81.7733 167.739 82.7084C168.474 84.6454 169.075 86.6492 169.81 88.5862C170.411 90.1224 171.079 91.6587 171.613 93.195C171.947 93.9965 172.148 94.8648 172.415 95.6663C172.816 96.735 173.216 97.8705 173.617 98.9392C174.218 100.542 174.753 102.212 175.354 103.815C175.621 104.483 175.821 105.218 176.088 105.886C176.489 107.021 176.89 108.223 177.291 109.359C177.758 110.628 178.226 111.897 178.627 113.233C179.094 114.702 179.495 116.172 179.963 117.574C180.23 118.309 180.497 119.044 180.764 119.779C181.632 121.916 181.833 124.12 181.632 126.324C181.632 126.859 181.165 127.46 180.898 127.927C180.297 128.996 179.361 129.798 178.293 130.332C177.825 130.599 177.224 130.733 176.623 130.733C163.598 130.733 150.507 130.733 137.482 130.733C136.681 130.733 136.413 130.332 136.213 129.731C135.679 128.261 135.144 126.792 134.61 125.323C134.143 124.12 133.742 122.918 133.274 121.649C132.873 120.447 132.473 119.311 132.005 118.109C131.404 116.372 130.736 114.636 130.068 112.899C129.667 111.763 129.267 110.695 128.799 109.559C128.732 109.292 128.598 109.025 128.465 108.691C127.53 108.691 126.528 108.691 125.459 108.691C125.393 108.691 125.192 108.825 125.192 108.958C124.992 109.826 124.858 110.762 124.658 111.63C124.458 112.632 124.19 113.634 123.99 114.702C123.856 115.237 123.79 115.771 123.723 116.239C123.522 117.241 123.255 118.309 123.055 119.311C122.921 119.779 122.854 120.313 122.788 120.781C122.587 121.849 122.32 122.918 122.12 123.987C121.919 124.989 121.786 125.99 121.585 126.992C121.385 127.927 121.184 128.796 120.984 129.731C120.984 129.998 120.917 130.265 120.851 130.599H102.282H102.148ZM104.286 85.0462C105.02 86.9164 105.688 88.7198 106.356 90.5233C106.757 91.592 107.292 92.6606 107.559 93.7961C107.692 94.3972 107.959 94.5977 108.561 94.5977C113.303 94.5977 118.112 94.5977 122.854 94.5977C123.055 94.5977 123.255 94.5976 123.589 94.5308C123.455 94.2636 123.389 94.0633 123.322 93.8629C122.721 92.2599 122.12 90.7236 121.585 89.1206C121.185 88.0519 120.784 86.9163 120.383 85.8477C120.183 85.3801 119.982 85.0462 119.381 85.0462C114.572 85.0462 109.763 85.0462 104.954 85.0462H104.286Z" fill="#FF7B00"/>
<path d="M535.505 117.879V99.2385L526.936 117.879H518.969L510.401 99.2385V117.879H499.052V80.6736H514.234L523.028 99.464L531.822 80.6736H546.629V71.3535H418.704V80.6736H429.828L444.409 98.9378V80.6736H455.758V117.879H444.559L430.128 99.6144V117.879H418.779V130.205H546.704V117.879H535.73H535.505ZM495.819 94.9543H484.47V92.3988C484.47 92.3988 484.395 91.8727 484.245 91.572C484.094 91.2714 483.869 91.1962 483.643 91.1962H470.866C470.866 91.1962 470.49 91.3465 470.34 91.6471C470.19 91.9478 470.114 92.1733 470.114 92.3988V106.229C470.114 106.229 470.114 106.755 470.34 107.055C470.49 107.356 470.641 107.431 470.866 107.431H483.643C483.643 107.431 484.094 107.281 484.245 107.055C484.395 106.755 484.47 106.529 484.47 106.229V103.673H495.819V111.189C495.819 111.866 495.669 112.542 495.444 113.294C495.143 114.045 494.842 114.797 494.391 115.473C493.94 116.15 493.489 116.751 492.963 117.202C492.437 117.653 491.986 117.879 491.535 117.879H463.049C462.523 117.879 462.072 117.653 461.546 117.202C461.019 116.751 460.569 116.15 460.193 115.473C459.817 114.797 459.441 114.045 459.216 113.294C458.915 112.542 458.84 111.866 458.84 111.189V87.5133C458.84 86.912 458.99 86.2356 459.216 85.4839C459.516 84.6572 459.817 83.9807 460.193 83.2291C460.569 82.5526 461.019 81.9514 461.546 81.5004C462.072 81.0494 462.523 80.824 463.049 80.824H491.535C491.986 80.824 492.437 81.0494 492.963 81.5004C493.489 81.9514 493.94 82.5526 494.391 83.2291C494.842 83.9055 495.143 84.6572 495.444 85.4839C495.744 86.2356 495.819 86.9872 495.819 87.5133V95.0295V94.9543Z" fill="#FF7B00"/>
</svg>
